<svg xmlns="http://www.w3.org/2000/svg" width="118.491" height="177.275" viewBox="0 0 118.491 177.275"><g transform="translate(-55.264 -51.743)"><path d="M114.512,51.743a59.316,59.316,0,0,0-59.248,59.248,58.5,58.5,0,0,0,12.672,36.527c1.636,2.083,3.355,4.077,5.175,6.188l.1.116c5.568,6.46,11.325,13.142,13.475,21.01a36.761,36.761,0,0,1,.527,7.923v4.526a7.5,7.5,0,0,0,7.5,7.5h39.272a7.5,7.5,0,0,0,7.5-7.5V182.7a31.938,31.938,0,0,1,.518-7.333c2.162-7.816,8.542-15.321,14.222-22l.245-.288c1.639-1.926,3.188-3.745,4.6-5.538a58.5,58.5,0,0,0,12.687-36.551A59.314,59.314,0,0,0,114.512,51.743Zm34.769,86.521c-1.235,1.571-2.691,3.282-4.233,5.093l-.3.355c-6.635,7.8-14.155,16.649-17.2,27.667a33.762,33.762,0,0,0-1.032,8.4H102.2a35.607,35.607,0,0,0-1.036-8.877c-3.05-11.164-10.557-19.875-16.59-26.876l-.1-.118c-1.705-1.977-3.315-3.845-4.746-5.665a43.652,43.652,0,0,1-9.462-27.254,44.245,44.245,0,1,1,88.49,0A43.65,43.65,0,0,1,149.281,138.264Z"/><path d="M133.984,196.91H94.713a7.5,7.5,0,1,0,0,15h39.272a7.5,7.5,0,1,0,0-15Z"/><path d="M124.166,214.018H104.531a7.5,7.5,0,0,0,0,15h19.635a7.5,7.5,0,1,0,0-15Z"/></g></svg>